<svg width="64" height="64" viewBox="0 0 64 64" xmlns="http://www.w3.org/2000/svg">
  <!-- Drop action -->
  <defs>
    <linearGradient id="dropGrad" x1="0%" y1="0%" x2="100%" y2="100%">
      <stop offset="0%" style="stop-color:#2196F3"/>
      <stop offset="100%" style="stop-color:#1976D2"/>
    </linearGradient>
  </defs>
  
  <!-- Person dropping down -->
  <circle cx="32" cy="20" r="6" fill="url(#dropGrad)"/>
  <path d="M24 32 Q24 26 32 26 Q40 26 40 32 Q40 48 32 48 Q24 48 24 32 Z" fill="url(#dropGrad)"/>
  
  <!-- Motion lines showing downward movement -->
  <path d="M16 12 L20 16 M12 16 L16 20 M8 20 L12 24" stroke="#FFC107" stroke-width="2" stroke-linecap="round"/>
  <path d="M48 12 L44 16 M52 16 L48 20 M56 20 L52 24" stroke="#FFC107" stroke-width="2" stroke-linecap="round"/>
  
  <!-- Ground level indicator -->
  <rect x="8" y="54" width="48" height="4" rx="2" fill="#795548"/>
  
  <!-- Action arrow pointing down -->
  <path d="M32 8 L32 16 M28 12 L32 16 L36 12" stroke="#FF5722" stroke-width="3" fill="none" stroke-linecap="round"/>
</svg>