<svg width="64" height="64" viewBox="0 0 64 64" xmlns="http://www.w3.org/2000/svg">
  <defs>
    <linearGradient id="certGrad" x1="0%" y1="0%" x2="100%" y2="100%">
      <stop offset="0%" style="stop-color:#FFD700"/>
      <stop offset="100%" style="stop-color:#FFA000"/>
    </linearGradient>
  </defs>
  
  <!-- Certificate background -->
  <rect x="8" y="12" width="48" height="36" rx="4" fill="url(#certGrad)" stroke="#FF8F00" stroke-width="2"/>
  <rect x="12" y="16" width="40" height="28" rx="2" fill="white"/>
  
  <!-- Certificate seal -->
  <circle cx="48" cy="20" r="8" fill="#FF5722" stroke="#D32F2F" stroke-width="2"/>
  <path d="M44 20 L46 24 L52 24 L48 27 L49 32 L44 29 L39 32 L40 27 L36 24 L42 24 Z" fill="white"/>
  
  <!-- Text lines -->
  <rect x="16" y="22" width="24" height="2" rx="1" fill="#666"/>
  <rect x="16" y="28" width="20" height="2" rx="1" fill="#666"/>
  <rect x="16" y="34" width="16" height="2" rx="1" fill="#666"/>
  
  <!-- Ribbon -->
  <path d="M40 48 L48 52 L56 48 L56 60 L48 56 L40 60 Z" fill="#FF5722"/>
</svg>