<svg width="24" height="24" viewBox="0 0 24 24" xmlns="http://www.w3.org/2000/svg">
  <!-- Quiz document -->
  <rect x="4" y="2" width="16" height="20" rx="2" fill="white" stroke="#2196F3" stroke-width="2"/>
  
  <!-- Question marks -->
  <path d="M8 8 Q8 6 10 6 Q12 6 12 8 Q12 9 10 10 L10 11" stroke="#2196F3" stroke-width="2" fill="none" stroke-linecap="round"/>
  <circle cx="10" cy="13" r="0.5" fill="#2196F3"/>
  
  <path d="M14 8 Q14 6 16 6 Q18 6 18 8 Q18 9 16 10 L16 11" stroke="#2196F3" stroke-width="2" fill="none" stroke-linecap="round"/>
  <circle cx="16" cy="13" r="0.5" fill="#2196F3"/>
  
  <!-- Answer lines -->
  <rect x="6" y="16" width="6" height="1" fill="#E0E0E0"/>
  <rect x="6" y="18" width="4" height="1" fill="#E0E0E0"/>
  <rect x="14" y="16" width="4" height="1" fill="#E0E0E0"/>
  <rect x="14" y="18" width="6" height="1" fill="#E0E0E0"/>
</svg>